<?xml version="1.0" encoding="UTF-8"?><svg id="Layer_1" xmlns="http://www.w3.org/2000/svg" viewBox="0 0 242.13 150.93"><defs><style>.cls-1{fill:#606060;}.cls-2{fill:#463947;}</style></defs><path class="cls-2" d="M93.67,39.18c14.73,0,23.19,9.33,27.39,16.1,4.2-6.77,12.66-16.1,27.39-16.1,8.79,0,16.12,4.26,20.12,11.7.12.23.23.48.34.71L238.17,0H3.96l69.25,51.59c.12-.24.22-.48.34-.71,4-7.43,11.33-11.7,20.12-11.7Z"/><path class="cls-2" d="M71.13,57.52L0,4.53v142.86c17.24-12.63,33.56-25.07,50.74-38.16,8.92-6.8,18.1-13.79,27.56-20.93-6.73-10.27-9.24-21.47-7.17-30.78Z"/><path class="cls-2" d="M122.28,122.47l-1.22.68-1.22-.68c-6.35-3.54-26.35-15.31-37.98-29.34-9.43,7.11-18.59,14.09-27.5,20.88-16.61,12.66-32.42,24.71-49.04,36.92h231.05c-17.04-11.97-33.66-24.75-49.79-37.17-8.72-6.71-17.61-13.54-26.62-20.3-11.67,13.89-31.39,25.5-37.7,29.01Z"/><path class="cls-2" d="M163.71,88.51c-.04.06-.08.12-.12.18,9.03,6.77,17.94,13.6,26.67,20.32,16.81,12.93,34.14,26.26,51.88,38.61V4.53l-71.13,52.99c2.08,9.38-.47,20.66-7.3,30.99Z"/><path class="cls-1" d="M148.46,44.18c-14.74,0-22.07,10.9-25.13,17.39l-2.26,4.8-2.26-4.8c-3.06-6.49-10.39-17.39-25.13-17.39-6.99,0-12.57,3.22-15.71,9.07-4.66,8.68-2.89,21.13,4.64,32.5,9.55,14.44,31.65,27.77,38.47,31.67,6.83-3.9,28.92-17.23,38.47-31.67,7.52-11.37,9.3-23.82,4.64-32.5-3.14-5.85-8.72-9.07-15.71-9.07Z"/></svg>